<?xml version="1.0" encoding="UTF-8" standalone="no"?>
<!-- Created with Inkscape (http://www.inkscape.org/) -->

<svg
   width="40.351509mm"
   height="41.363033mm"
   viewBox="0 0 40.351509 41.363033"
   version="1.1"
   id="svg1"
   xml:space="preserve"
   inkscape:version="1.3 (0e150ed6c4, 2023-07-21)"
   sodipodi:docname="hgx.svg"
   xmlns:inkscape="http://www.inkscape.org/namespaces/inkscape"
   xmlns:sodipodi="http://sodipodi.sourceforge.net/DTD/sodipodi-0.dtd"
   xmlns="http://www.w3.org/2000/svg"
   xmlns:svg="http://www.w3.org/2000/svg"><sodipodi:namedview
     id="namedview1"
     pagecolor="#ffffff"
     bordercolor="#666666"
     borderopacity="1.0"
     inkscape:showpageshadow="2"
     inkscape:pageopacity="0.0"
     inkscape:pagecheckerboard="0"
     inkscape:deskcolor="#d1d1d1"
     inkscape:document-units="mm"
     showguides="true"
     inkscape:lockguides="false"
     inkscape:zoom="1.529091"
     inkscape:cx="327.64564"
     inkscape:cy="469.23302"
     inkscape:window-width="1920"
     inkscape:window-height="1176"
     inkscape:window-x="0"
     inkscape:window-y="0"
     inkscape:window-maximized="1"
     inkscape:current-layer="layer1"><sodipodi:guide
       position="-102.7472,180.31598"
       orientation="-1,0"
       id="guide1"
       inkscape:locked="false"
       inkscape:label=""
       inkscape:color="rgb(0,134,229)" /><sodipodi:guide
       position="-99.022811,178.25567"
       orientation="0,1"
       id="guide2"
       inkscape:locked="false"
       inkscape:label=""
       inkscape:color="rgb(0,134,229)" /><sodipodi:guide
       position="-103.28651,336.35567"
       orientation="0,1"
       id="guide5"
       inkscape:locked="false"
       inkscape:label=""
       inkscape:color="rgb(0,134,229)" /><sodipodi:guide
       position="-103.22348,228.25567"
       orientation="0,1"
       id="guide56"
       inkscape:locked="false"
       inkscape:label=""
       inkscape:color="rgb(0,134,229)" /><sodipodi:guide
       position="-2.7471974,278.96698"
       orientation="-1,0"
       id="guide57"
       inkscape:locked="false"
       inkscape:label=""
       inkscape:color="rgb(0,134,229)" /></sodipodi:namedview><defs
     id="defs1" /><g
     inkscape:label="Layer 1"
     inkscape:groupmode="layer"
     id="layer1"
     transform="translate(-102.7472,-118.25567)"><path
       id="circle89"
       style="fill:none;stroke:#000000;stroke-width:0.0999997"
       d="m 129.93219,121.89574 a 1.5,1.5 0 0 1 -1.5,1.5 1.5,1.5 0 0 1 -1.5,-1.5 1.5,1.5 0 0 1 1.5,-1.5 1.5,1.5 0 0 1 1.5,1.5 z M 108.3302,155.4483 a 1.5,1.5 0 0 1 -1.5,1.5 1.5,1.5 0 0 1 -1.5,-1.5 1.5,1.5 0 0 1 1.5,-1.5 1.5,1.5 0 0 1 1.5,1.5 z m 27.64999,0 a 1.5,1.5 0 0 1 -1.5,1.5 1.5,1.5 0 0 1 -1.5,-1.5 1.5,1.5 0 0 1 1.5,-1.5 1.5,1.5 0 0 1 1.5,1.5 z M 116.5302,129.54831 a 2.5,2.5 0 0 1 -2.5,2.5 2.5,2.5 0 0 1 -2.5,-2.5 2.5,2.5 0 0 1 2.5,-2.5 2.5,2.5 0 0 1 2.5,2.5 z m 26.51765,29.9677 -0.10197,-5.97898 h -4.12137 c -1.21282,-0.038 -1.7387,-1.76539 -2.66385,-2.13823 -2.92413,-1.31288 -5.52553,-2.03557 -7.96128,-3.30979 -2.74839,-1.43778 -3.49558,-6.10082 -1.22621,-8.94071 2.02077,-2.22704 5.11839,-5.91463 7.41343,-8.41268 l 0.0105,-12.42994 h -18.15896 c -0.0735,4.6015 -0.68221,6.29763 -3.64747,7.32242 -3.81698,2.24598 -2.36721,5.89119 -0.94222,8.06414 l 0.11911,6.22987 c -1.71364,1.10779 -2.19155,3.07684 -1.11845,5.30578 l -1.89871,6.05281 c -3.47461,-0.0132 -5.94518,1.49926 -5.95234,4.18559 -0.0359,2.14926 1.05174,4.07759 3.79142,4.10243 z m -28.51534,-16.46683 a 1.5,1.5 0 0 1 -1.5,1.5 1.5,1.5 0 0 1 -1.5,-1.5 1.5,1.5 0 0 1 1.5,-1.5 1.5,1.5 0 0 1 1.5,1.5 z" /></g></svg>
