<?xml version="1.0" encoding="UTF-8" standalone="no"?>
<!-- Created with Inkscape (http://www.inkscape.org/) -->

<svg
   width="9.7533302mm"
   height="49.515709mm"
   viewBox="0 0 9.7533302 49.515709"
   version="1.1"
   id="svg1"
   xml:space="preserve"
   inkscape:version="1.3 (0e150ed6c4, 2023-07-21)"
   sodipodi:docname="hgx.svg"
   xmlns:inkscape="http://www.inkscape.org/namespaces/inkscape"
   xmlns:sodipodi="http://sodipodi.sourceforge.net/DTD/sodipodi-0.dtd"
   xmlns="http://www.w3.org/2000/svg"
   xmlns:svg="http://www.w3.org/2000/svg"><sodipodi:namedview
     id="namedview1"
     pagecolor="#ffffff"
     bordercolor="#666666"
     borderopacity="1.0"
     inkscape:showpageshadow="2"
     inkscape:pageopacity="0.0"
     inkscape:pagecheckerboard="0"
     inkscape:deskcolor="#d1d1d1"
     inkscape:document-units="mm"
     showguides="true"
     inkscape:lockguides="false"
     inkscape:zoom="1.529091"
     inkscape:cx="327.64564"
     inkscape:cy="469.23302"
     inkscape:window-width="1920"
     inkscape:window-height="1176"
     inkscape:window-x="0"
     inkscape:window-y="0"
     inkscape:window-maximized="1"
     inkscape:current-layer="layer1"><sodipodi:guide
       position="-8.4755457,170.45429"
       orientation="-1,0"
       id="guide1"
       inkscape:locked="false"
       inkscape:label=""
       inkscape:color="rgb(0,134,229)" /><sodipodi:guide
       position="-4.7511594,168.39399"
       orientation="0,1"
       id="guide2"
       inkscape:locked="false"
       inkscape:label=""
       inkscape:color="rgb(0,134,229)" /><sodipodi:guide
       position="-9.0148608,326.49398"
       orientation="0,1"
       id="guide5"
       inkscape:locked="false"
       inkscape:label=""
       inkscape:color="rgb(0,134,229)" /><sodipodi:guide
       position="-8.951824,218.39398"
       orientation="0,1"
       id="guide56"
       inkscape:locked="false"
       inkscape:label=""
       inkscape:color="rgb(0,134,229)" /><sodipodi:guide
       position="91.524454,269.10529"
       orientation="-1,0"
       id="guide57"
       inkscape:locked="false"
       inkscape:label=""
       inkscape:color="rgb(0,134,229)" /></sodipodi:namedview><defs
     id="defs1" /><g
     inkscape:label="Layer 1"
     inkscape:groupmode="layer"
     id="layer1"
     transform="translate(-8.4755456,-108.39398)"><path
       id="circle68"
       style="fill:none;stroke:#000000;stroke-width:0.1"
       d="m 16.677728,154.81911 a 1.5,1.5 0 0 1 -1.5,1.5 1.5,1.5 0 0 1 -1.5,-1.5 1.5,1.5 0 0 1 1.5,-1.5 1.5,1.5 0 0 1 1.5,1.5 z M 13.903187,142.3535 a 1.5,1.5 0 0 1 -1.5,1.5 1.5,1.5 0 0 1 -1.5,-1.5 1.5,1.5 0 0 1 1.5,-1.5 1.5,1.5 0 0 1 1.5,1.5 z m 4.065016,12.1511 v -9.72486 c 0.03315,-2.37888 -0.338263,-4.20432 -1.272169,-5.5417 -0.889352,-0.96949 -1.532798,-2.43079 -1.528666,-5.18725 l -0.104632,-13.67467 c 0.06956,-1.73664 1.032275,-3.86415 2.156181,-5.82883 1.307368,-2.4502 0.918435,-4.20825 0.865279,-6.10331 h -1.265231 c -0.04599,1.90169 -0.38581,3.82707 -1.771305,5.83674 -1.284121,1.7742 -2.925627,3.45359 -2.835991,7.32521 l 0.124788,13.74189 c 0.05496,2.26014 -0.57215,2.77091 -2.120036,3.833 -1.9026327,1.19043 -2.6857103,4.25453 0.276997,6.42642 1.312726,0.80514 1.83193,1.94184 1.829373,3.70729 l -0.05139,5.3157 c 0.09564,4.33541 5.702603,4.31777 5.696802,-0.12563 z" /></g></svg>
