<?xml version="1.0" encoding="UTF-8" standalone="no"?>
<!-- Created with Inkscape (http://www.inkscape.org/) -->

<svg
   width="39.915462mm"
   height="41.54324mm"
   viewBox="0 0 39.915462 41.54324"
   version="1.1"
   id="svg1"
   xml:space="preserve"
   inkscape:version="1.3 (0e150ed6c4, 2023-07-21)"
   sodipodi:docname="hgx.svg"
   xmlns:inkscape="http://www.inkscape.org/namespaces/inkscape"
   xmlns:sodipodi="http://sodipodi.sourceforge.net/DTD/sodipodi-0.dtd"
   xmlns="http://www.w3.org/2000/svg"
   xmlns:svg="http://www.w3.org/2000/svg"><sodipodi:namedview
     id="namedview1"
     pagecolor="#ffffff"
     bordercolor="#666666"
     borderopacity="1.0"
     inkscape:showpageshadow="2"
     inkscape:pageopacity="0.0"
     inkscape:pagecheckerboard="0"
     inkscape:deskcolor="#d1d1d1"
     inkscape:document-units="mm"
     showguides="true"
     inkscape:lockguides="false"
     inkscape:zoom="1.529091"
     inkscape:cx="327.64564"
     inkscape:cy="469.23302"
     inkscape:window-width="1920"
     inkscape:window-height="1176"
     inkscape:window-x="0"
     inkscape:window-y="0"
     inkscape:window-maximized="1"
     inkscape:current-layer="layer1"><sodipodi:guide
       position="-50.780966,181.68585"
       orientation="-1,0"
       id="guide1"
       inkscape:locked="false"
       inkscape:label=""
       inkscape:color="rgb(0,134,229)" /><sodipodi:guide
       position="-47.05658,179.62555"
       orientation="0,1"
       id="guide2"
       inkscape:locked="false"
       inkscape:label=""
       inkscape:color="rgb(0,134,229)" /><sodipodi:guide
       position="-51.320282,337.72554"
       orientation="0,1"
       id="guide5"
       inkscape:locked="false"
       inkscape:label=""
       inkscape:color="rgb(0,134,229)" /><sodipodi:guide
       position="-51.257245,229.62554"
       orientation="0,1"
       id="guide56"
       inkscape:locked="false"
       inkscape:label=""
       inkscape:color="rgb(0,134,229)" /><sodipodi:guide
       position="49.219034,280.33685"
       orientation="-1,0"
       id="guide57"
       inkscape:locked="false"
       inkscape:label=""
       inkscape:color="rgb(0,134,229)" /></sodipodi:namedview><defs
     id="defs1" /><g
     inkscape:label="Layer 1"
     inkscape:groupmode="layer"
     id="layer1"
     transform="translate(-50.780966,-119.62554)"><path
       id="path85"
       style="fill:none;fill-rule:evenodd;stroke:#000000;stroke-width:0.264583px;stroke-linecap:butt;stroke-linejoin:miter;stroke-opacity:1"
       d="m 64.853949,133.57106 1.856658,-1.43052 c 0.35206,-0.33619 0.413014,-0.73134 0.213325,-1.17929 l -0.899649,-2.97477 c -0.153768,-0.45054 -0.309798,-0.89904 -0.972561,-0.8899 -1.342169,0.0599 -2.247536,-0.80227 -3.071831,-1.83555 -1.49943,-1.02344 -1.891854,-0.2565 -2.278295,0.52012 0.22976,0.80035 0.01521,1.31998 -0.232818,2.06111 -0.192577,0.38595 -0.570183,1.36764 -0.03222,1.83017 l 3.81794,4.05002 c 0.469178,0.53176 1.131602,0.44709 1.599451,-0.15139 z m 3.996991,-3.25756 -0.984451,-3.28654 c -0.29251,-0.73079 0.01606,-0.89968 0.128643,-1.25178 0.681277,-0.80498 0.797169,-1.87014 0.66923,-3.0475 0.05173,-0.45713 0.218468,-0.8856 0.944258,-1.17474 l 4.318682,-0.0398 c 0.47358,0.10177 0.953543,0.0124 1.397389,1.00431 0.131954,0.85955 0.06089,1.6469 1.062543,2.81573 0.18707,0.5875 0.271709,1.13338 -0.112178,1.48892 -0.739346,0.74373 -1.454679,1.50509 -1.59413,2.68907 -0.110305,0.78331 -0.467226,1.23151 -0.891993,1.5875 l -3.981728,-0.0189 c -0.602888,0.10406 -0.773719,-0.33851 -0.956265,-0.76627 z m -2.343231,-6.71954 a 1.3762848,1.3762848 0 0 1 -1.376285,1.37629 1.3762848,1.3762848 0 0 1 -1.376285,-1.37629 1.3762848,1.3762848 0 0 1 1.376285,-1.37628 1.3762848,1.3762848 0 0 1 1.376285,1.37628 z m 3.773873,28.2328 -3.888227,-1.06542 c -0.891217,-0.40863 -1.458426,-0.012 -1.976495,0.50685 l -1.878095,2.56925 c -0.319239,0.47594 -0.336904,0.99634 -0.176675,1.54296 0.355652,0.97114 0.526643,1.95378 0.260916,2.96365 0.08384,0.6308 0.04619,1.3395 1.399093,1.15649 l 6.739668,0.0248 c 0.771338,-0.15522 0.761259,-0.70393 0.828219,-1.21384 l 0.03915,-5.23814 c -0.08794,-0.55035 -0.46684,-0.99211 -1.347554,-1.2466 z m 4.687991,7.83315 8.270423,-0.0193 c -0.458981,-1.83917 -0.37722,-2.33568 0.06398,-4.25558 l -2.248437,-6.30685 c -0.611855,-1.08239 -1.401872,-0.86335 -2.19107,-0.65031 l -4.024172,2.94604 c -1.036813,0.48156 -0.942071,1.0359 -1.16001,1.57012 l 0.168286,5.74805 c 0.07797,0.45685 0.138337,0.92168 1.120997,0.96781 z M 60.56321,157.03407 a 1.3977549,1.3977549 0 0 1 -1.397755,1.39776 1.3977549,1.3977549 0 0 1 -1.397755,-1.39776 1.3977549,1.3977549 0 0 1 1.397755,-1.39775 1.3977549,1.3977549 0 0 1 1.397755,1.39775 z m -9.649953,-1.75181 v 5.75423 H 86.60347 c 5.237667,-0.13278 5.316794,-7.7892 0.02122,-7.91905 -1.045509,0.25439 -1.759829,-0.1222 -2.138645,-1.138 l -1.504779,-4.83917 c 0.91818,-1.80228 1.016267,-3.95933 -1.041587,-5.44366 l -0.53208,-4.54536 c 0.0033,-0.80683 0.371825,-1.18509 0.842513,-1.44354 4.507675,-2.9082 3.181229,-8.32868 -0.168543,-9.5638 -3.695081,-1.19941 -4.789937,-2.28241 -5.01012,-6.38608 H 60.009414 c -0.697471,0.11449 -1.395262,0.23112 -2.299431,1.72955 -0.3314,0.90285 -1.14965,0.70378 -2.443832,0.77542 -4.649632,0.42783 -4.291035,7.29779 -0.248799,7.66062 1.246077,-0.17604 2.299798,0.1585 3.305534,1.17546 l 3.195632,3.713 c 0.65977,1.0511 0.489989,1.99602 0.121447,2.9155 -1.006486,2.06679 -1.486315,6.83406 1.45163,10.51946 0.324006,0.565 0.297503,1.04424 0.09177,1.47961 l -2.678704,3.66273 c -2.053187,0.55493 -3.054265,1.18357 -4.122729,1.80748 z M 57.30927,126.0778 a 1.5995604,1.5995604 0 0 1 -1.599561,1.59956 1.5995604,1.5995604 0 0 1 -1.59956,-1.59956 1.5995604,1.5995604 0 0 1 1.59956,-1.59956 1.5995604,1.5995604 0 0 1 1.599561,1.59956 z m 31.163881,30.89817 a 1.753684,1.753684 0 0 1 -1.753684,1.75368 1.753684,1.753684 0 0 1 -1.753684,-1.75368 1.753684,1.753684 0 0 1 1.753684,-1.75369 1.753684,1.753684 0 0 1 1.753684,1.75369 z m -6.206046,-25.90384 a 2.5,2.5 0 0 1 -2.5,2.5 2.5,2.5 0 0 1 -2.5,-2.5 2.5,2.5 0 0 1 2.5,-2.5 2.5,2.5 0 0 1 2.5,2.5 z m -2.604591,10.45381 c 0,4.69442 -3.80558,8.5 -8.5,8.5 -4.69442,0 -8.5,-3.80558 -8.5,-8.5 0,-4.69442 3.80558,-8.5 8.5,-8.5 4.69442,0 8.5,3.80558 8.5,8.5 z" /></g></svg>
